<?xml version="1.0" encoding="UTF-8" standalone="no"?> <svg width="512" height="512" viewBox="0 0 512 512" fill="none" xmlns="http://www.w3.org/2000/svg">
<path d="M256 8C241.76 8 227.839 12.2227 215.999 20.1342C204.159 28.0456 194.93 39.2905 189.481 52.4468C184.031 65.6031 182.605 80.0799 185.383 94.0465C188.162 108.013 195.019 120.842 205.088 130.912C215.158 140.981 227.987 147.838 241.953 150.617C255.92 153.395 270.397 151.969 283.553 146.519C296.709 141.07 307.954 131.841 315.866 120.001C323.777 108.161 328 94.2403 328 80C327.978 60.9112 320.385 42.6104 306.887 29.1126C293.39 15.6147 275.089 8.02197 256 8V8ZM256 24C268.089 23.9876 279.855 27.9082 289.52 35.17L252.69 72H200.58C202.521 58.6805 209.187 46.503 219.361 37.6908C229.536 28.8785 242.54 24.0192 256 24V24ZM256 136C242.54 135.981 229.536 131.121 219.361 122.309C209.187 113.497 202.521 101.32 200.58 88H250.35L266.95 134.92C263.344 135.636 259.676 135.998 256 136V136ZM282.03 129.56L265.23 82.09L300.83 46.48C305.687 52.9627 309.078 60.4231 310.769 68.3452C312.459 76.2672 312.409 84.462 310.621 92.3626C308.833 100.263 305.35 107.681 300.414 114.104C295.477 120.526 289.205 125.8 282.03 129.56Z" fill="url(#paint0_linear_1_1708)"/>
<path d="M256 360C241.76 360 227.839 364.223 215.999 372.134C204.159 380.046 194.93 391.291 189.481 404.447C184.031 417.603 182.605 432.08 185.383 446.047C188.162 460.013 195.019 472.842 205.088 482.912C215.158 492.981 227.987 499.838 241.953 502.617C255.92 505.395 270.397 503.969 283.553 498.519C296.709 493.07 307.954 483.841 315.866 472.001C323.777 460.161 328 446.24 328 432C327.979 412.911 320.386 394.61 306.888 381.112C293.39 367.614 275.089 360.021 256 360V360ZM256 488C244.924 488 234.097 484.716 224.888 478.562C215.679 472.409 208.501 463.663 204.263 453.43C200.024 443.198 198.915 431.938 201.076 421.075C203.237 410.212 208.57 400.234 216.402 392.402C224.234 384.57 234.212 379.237 245.075 377.076C255.938 374.915 267.198 376.024 277.43 380.263C287.663 384.501 296.409 391.679 302.562 400.888C308.716 410.097 312 420.924 312 432C311.983 446.847 306.078 461.081 295.58 471.58C285.081 482.078 270.847 487.983 256 488V488Z" fill="url(#paint1_linear_1_1708)"/>
<path d="M168 56H155.31L125.66 26.34C124.158 24.8408 122.122 23.9992 120 24H80V16C80 13.8783 79.1571 11.8434 77.6569 10.3431C76.1566 8.84285 74.1217 8 72 8H16C13.8783 8 11.8434 8.84285 10.3431 10.3431C8.84285 11.8434 8 13.8783 8 16V48C8 50.1217 8.84285 52.1566 10.3431 53.6569C11.8434 55.1571 13.8783 56 16 56H72C74.1217 56 76.1566 55.1571 77.6569 53.6569C79.1571 52.1566 80 50.1217 80 48V40H116.69L146.34 69.66C147.842 71.1592 149.878 72.0008 152 72H168C170.122 72 172.157 71.1571 173.657 69.6569C175.157 68.1566 176 66.1217 176 64C176 61.8783 175.157 59.8434 173.657 58.3431C172.157 56.8429 170.122 56 168 56ZM64 40H24V24H64V40Z" fill="url(#paint2_linear_1_1708)"/>
<path d="M496 456H440C437.878 456 435.843 456.843 434.343 458.343C432.843 459.843 432 461.878 432 464V472H395.313L365.657 442.343C364.914 441.6 364.032 441.011 363.062 440.609C362.091 440.207 361.051 440 360 440H344C341.878 440 339.843 440.843 338.343 442.343C336.843 443.843 336 445.878 336 448C336 450.122 336.843 452.157 338.343 453.657C339.843 455.157 341.878 456 344 456H356.687L386.343 485.657C387.086 486.4 387.968 486.989 388.938 487.391C389.909 487.793 390.949 488 392 488H432V496C432 498.122 432.843 500.157 434.343 501.657C435.843 503.157 437.878 504 440 504H496C498.122 504 500.157 503.157 501.657 501.657C503.157 500.157 504 498.122 504 496V464C504 461.878 503.157 459.843 501.657 458.343C500.157 456.843 498.122 456 496 456ZM488 488H448V472H488V488Z" fill="url(#paint3_linear_1_1708)"/>
<path d="M192 336V176C192 173.878 191.157 171.843 189.657 170.343C188.157 168.843 186.122 168 184 168H24C21.8783 168 19.8434 168.843 18.3431 170.343C16.8429 171.843 16 173.878 16 176V336C16 338.122 16.8429 340.157 18.3431 341.657C19.8434 343.157 21.8783 344 24 344H184C186.122 344 188.157 343.157 189.657 341.657C191.157 340.157 192 338.122 192 336ZM176 328H32V184H176V328Z" fill="url(#paint4_linear_1_1708)"/>
<path d="M48 248H160C162.122 248 164.157 247.157 165.657 245.657C167.157 244.157 168 242.122 168 240V200C168 197.878 167.157 195.843 165.657 194.343C164.157 192.843 162.122 192 160 192H48C45.8783 192 43.8434 192.843 42.3431 194.343C40.8429 195.843 40 197.878 40 200V240C40 242.122 40.8429 244.157 42.3431 245.657C43.8434 247.157 45.8783 248 48 248ZM56 208H152V232H56V208Z" fill="url(#paint5_linear_1_1708)"/>
<path d="M48 272H160C162.122 272 164.157 271.157 165.657 269.657C167.157 268.157 168 266.122 168 264C168 261.878 167.157 259.843 165.657 258.343C164.157 256.843 162.122 256 160 256H48C45.8783 256 43.8434 256.843 42.3431 258.343C40.8429 259.843 40 261.878 40 264C40 266.122 40.8429 268.157 42.3431 269.657C43.8434 271.157 45.8783 272 48 272Z" fill="url(#paint6_linear_1_1708)"/>
<path d="M48 296H160C162.122 296 164.157 295.157 165.657 293.657C167.157 292.157 168 290.122 168 288C168 285.878 167.157 283.843 165.657 282.343C164.157 280.843 162.122 280 160 280H48C45.8783 280 43.8434 280.843 42.3431 282.343C40.8429 283.843 40 285.878 40 288C40 290.122 40.8429 292.157 42.3431 293.657C43.8434 295.157 45.8783 296 48 296Z" fill="url(#paint7_linear_1_1708)"/>
<path d="M48 320H104C106.122 320 108.157 319.157 109.657 317.657C111.157 316.157 112 314.122 112 312C112 309.878 111.157 307.843 109.657 306.343C108.157 304.843 106.122 304 104 304H48C45.8783 304 43.8434 304.843 42.3431 306.343C40.8429 307.843 40 309.878 40 312C40 314.122 40.8429 316.157 42.3431 317.657C43.8434 319.157 45.8783 320 48 320Z" fill="url(#paint8_linear_1_1708)"/>
<path d="M136 304H128C125.878 304 123.843 304.843 122.343 306.343C120.843 307.843 120 309.878 120 312C120 314.122 120.843 316.157 122.343 317.657C123.843 319.157 125.878 320 128 320H136C138.122 320 140.157 319.157 141.657 317.657C143.157 316.157 144 314.122 144 312C144 309.878 143.157 307.843 141.657 306.343C140.157 304.843 138.122 304 136 304Z" fill="url(#paint9_linear_1_1708)"/>
<path d="M168 96H120C111.516 96.0095 103.382 99.384 97.3831 105.383C91.384 111.382 88.0095 119.516 88 128V152C88 154.122 88.8429 156.157 90.3431 157.657C91.8434 159.157 93.8783 160 96 160C98.1217 160 100.157 159.157 101.657 157.657C103.157 156.157 104 154.122 104 152V128C104.005 123.758 105.692 119.691 108.692 116.692C111.691 113.692 115.758 112.005 120 112H168C170.122 112 172.157 111.157 173.657 109.657C175.157 108.157 176 106.122 176 104C176 101.878 175.157 99.8434 173.657 98.3431C172.157 96.8429 170.122 96 168 96Z" fill="url(#paint10_linear_1_1708)"/>
<path d="M168 400H120C115.758 399.995 111.691 398.308 108.692 395.308C105.692 392.309 104.005 388.242 104 384V360C104 357.878 103.157 355.843 101.657 354.343C100.157 352.843 98.1217 352 96 352C93.8783 352 91.8434 352.843 90.3431 354.343C88.8429 355.843 88 357.878 88 360V384C88.0095 392.484 91.384 400.618 97.3831 406.617C103.382 412.616 111.516 415.99 120 416H168C170.122 416 172.157 415.157 173.657 413.657C175.157 412.157 176 410.122 176 408C176 405.878 175.157 403.843 173.657 402.343C172.157 400.843 170.122 400 168 400Z" fill="url(#paint11_linear_1_1708)"/>
<path d="M344 112H424C428.242 112.005 432.309 113.692 435.308 116.692C438.308 119.691 439.995 123.758 440 128V204.686L394.343 250.343C393.6 251.086 393.011 251.968 392.609 252.938C392.207 253.909 392 254.949 392 256C392 257.051 392.207 258.091 392.609 259.062C393.011 260.032 393.6 260.914 394.343 261.657L442.343 309.657C443.086 310.4 443.968 310.989 444.938 311.391C445.909 311.793 446.949 312 448 312C449.051 312 450.091 311.793 451.062 311.391C452.032 310.989 452.914 310.4 453.657 309.657L501.657 261.657C502.4 260.914 502.989 260.032 503.391 259.062C503.793 258.091 504 257.051 504 256C504 254.949 503.793 253.909 503.391 252.938C502.989 251.968 502.4 251.086 501.657 250.343L456 204.686V128C455.99 119.516 452.616 111.382 446.617 105.383C440.618 99.384 432.484 96.0095 424 96H344C341.878 96 339.843 96.8429 338.343 98.3431C336.843 99.8434 336 101.878 336 104C336 106.122 336.843 108.157 338.343 109.657C339.843 111.157 341.878 112 344 112ZM448 292.687L411.313 256L448 219.313L484.687 256L448 292.687Z" fill="url(#paint12_linear_1_1708)"/>
<path d="M376 264C378.122 264 380.157 263.157 381.657 261.657C383.157 260.157 384 258.122 384 256C384 253.878 383.157 251.843 381.657 250.343C380.157 248.843 378.122 248 376 248H368C365.878 248 363.843 248.843 362.343 250.343C360.843 251.843 360 253.878 360 256C360 258.122 360.843 260.157 362.343 261.657C363.843 263.157 365.878 264 368 264H376Z" fill="url(#paint13_linear_1_1708)"/>
<path d="M344 264C346.122 264 348.157 263.157 349.657 261.657C351.157 260.157 352 258.122 352 256C352 253.878 351.157 251.843 349.657 250.343C348.157 248.843 346.122 248 344 248H336C333.878 248 331.843 248.843 330.343 250.343C328.843 251.843 328 253.878 328 256C328 258.122 328.843 260.157 330.343 261.657C331.843 263.157 333.878 264 336 264H344Z" fill="url(#paint14_linear_1_1708)"/>
<path d="M304 248C301.878 248 299.843 248.843 298.343 250.343C296.843 251.843 296 253.878 296 256C296 258.122 296.843 260.157 298.343 261.657C299.843 263.157 301.878 264 304 264H312C314.122 264 316.157 263.157 317.657 261.657C319.157 260.157 320 258.122 320 256C320 253.878 319.157 251.843 317.657 250.343C316.157 248.843 314.122 248 312 248H304Z" fill="url(#paint15_linear_1_1708)"/>
<path d="M272 248C269.878 248 267.843 248.843 266.343 250.343C264.843 251.843 264 253.878 264 256C264 258.122 264.843 260.157 266.343 261.657C267.843 263.157 269.878 264 272 264H280C282.122 264 284.157 263.157 285.657 261.657C287.157 260.157 288 258.122 288 256C288 253.878 287.157 251.843 285.657 250.343C284.157 248.843 282.122 248 280 248H272Z" fill="url(#paint16_linear_1_1708)"/>
<path d="M240 248C237.878 248 235.843 248.843 234.343 250.343C232.843 251.843 232 253.878 232 256C232 258.122 232.843 260.157 234.343 261.657C235.843 263.157 237.878 264 240 264H248C250.122 264 252.157 263.157 253.657 261.657C255.157 260.157 256 258.122 256 256C256 253.878 255.157 251.843 253.657 250.343C252.157 248.843 250.122 248 248 248H240Z" fill="url(#paint17_linear_1_1708)"/>
<path d="M208 248C205.878 248 203.843 248.843 202.343 250.343C200.843 251.843 200 253.878 200 256C200 258.122 200.843 260.157 202.343 261.657C203.843 263.157 205.878 264 208 264H216C218.122 264 220.157 263.157 221.657 261.657C223.157 260.157 224 258.122 224 256C224 253.878 223.157 251.843 221.657 250.343C220.157 248.843 218.122 248 216 248H208Z" fill="url(#paint18_linear_1_1708)"/>
<path d="M168 424H48C45.8783 424 43.8434 424.843 42.3431 426.343C40.8429 427.843 40 429.878 40 432C40 434.122 40.8429 436.157 42.3431 437.657C43.8434 439.157 45.8783 440 48 440H168C170.122 440 172.157 439.157 173.657 437.657C175.157 436.157 176 434.122 176 432C176 429.878 175.157 427.843 173.657 426.343C172.157 424.843 170.122 424 168 424Z" fill="url(#paint19_linear_1_1708)"/>
<path d="M336 424C336 426.122 336.843 428.157 338.343 429.657C339.843 431.157 341.878 432 344 432H416C418.122 432 420.157 431.157 421.657 429.657C423.157 428.157 424 426.122 424 424C424 421.878 423.157 419.843 421.657 418.343C420.157 416.843 418.122 416 416 416H344C341.878 416 339.843 416.843 338.343 418.343C336.843 419.843 336 421.878 336 424Z" fill="url(#paint20_linear_1_1708)"/>
<path d="M168 448H136C133.878 448 131.843 448.843 130.343 450.343C128.843 451.843 128 453.878 128 456C128 458.122 128.843 460.157 130.343 461.657C131.843 463.157 133.878 464 136 464H168C170.122 464 172.157 463.157 173.657 461.657C175.157 460.157 176 458.122 176 456C176 453.878 175.157 451.843 173.657 450.343C172.157 448.843 170.122 448 168 448Z" fill="url(#paint21_linear_1_1708)"/>
<path d="M344 64H472C474.122 64 476.157 63.1571 477.657 61.6569C479.157 60.1566 480 58.1217 480 56C480 53.8783 479.157 51.8434 477.657 50.3431C476.157 48.8429 474.122 48 472 48H344C341.878 48 339.843 48.8429 338.343 50.3431C336.843 51.8434 336 53.8783 336 56C336 58.1217 336.843 60.1566 338.343 61.6569C339.843 63.1571 341.878 64 344 64Z" fill="url(#paint22_linear_1_1708)"/>
<path d="M344 88H360C362.122 88 364.157 87.1571 365.657 85.6569C367.157 84.1566 368 82.1217 368 80C368 77.8783 367.157 75.8434 365.657 74.3431C364.157 72.8429 362.122 72 360 72H344C341.878 72 339.843 72.8429 338.343 74.3431C336.843 75.8434 336 77.8783 336 80C336 82.1217 336.843 84.1566 338.343 85.6569C339.843 87.1571 341.878 88 344 88Z" fill="url(#paint23_linear_1_1708)"/>
<path d="M456 328C456 325.878 455.157 323.843 453.657 322.343C452.157 320.843 450.122 320 448 320C445.878 320 443.843 320.843 442.343 322.343C440.843 323.843 440 325.878 440 328V336C440 338.122 440.843 340.157 442.343 341.657C443.843 343.157 445.878 344 448 344C450.122 344 452.157 343.157 453.657 341.657C455.157 340.157 456 338.122 456 336V328Z" fill="url(#paint24_linear_1_1708)"/>
<path d="M456 360C456 357.878 455.157 355.843 453.657 354.343C452.157 352.843 450.122 352 448 352C445.878 352 443.843 352.843 442.343 354.343C440.843 355.843 440 357.878 440 360V368C440 370.122 440.843 372.157 442.343 373.657C443.843 375.157 445.878 376 448 376C450.122 376 452.157 375.157 453.657 373.657C455.157 372.157 456 370.122 456 368V360Z" fill="url(#paint25_linear_1_1708)"/>
<path d="M456 392C456 389.878 455.157 387.843 453.657 386.343C452.157 384.843 450.122 384 448 384C445.878 384 443.843 384.843 442.343 386.343C440.843 387.843 440 389.878 440 392V400C440 402.122 440.843 404.157 442.343 405.657C443.843 407.157 445.878 408 448 408C450.122 408 452.157 407.157 453.657 405.657C455.157 404.157 456 402.122 456 400V392Z" fill="url(#paint26_linear_1_1708)"/>
<path d="M448 416C445.878 416 443.843 416.843 442.343 418.343C440.843 419.843 440 421.878 440 424V432C440 434.122 440.843 436.157 442.343 437.657C443.843 439.157 445.878 440 448 440C450.122 440 452.157 439.157 453.657 437.657C455.157 436.157 456 434.122 456 432V424C456 421.878 455.157 419.843 453.657 418.343C452.157 416.843 450.122 416 448 416Z" fill="url(#paint27_linear_1_1708)"/>
<defs>
<linearGradient id="paint0_linear_1_1708" x1="-91.0501" y1="427.05" x2="423.431" y2="-87.431" gradientUnits="userSpaceOnUse">
<stop stop-color="#003F8A"/>
<stop offset="0.518" stop-color="#00D7DF"/>
<stop offset="1" stop-color="#006DF0"/>
</linearGradient>
<linearGradient id="paint1_linear_1_1708" x1="12416.8" y1="87199.2" x2="86502.1" y2="13113.9" gradientUnits="userSpaceOnUse">
<stop stop-color="#003F8A"/>
<stop offset="0.518" stop-color="#00D7DF"/>
<stop offset="1" stop-color="#006DF0"/>
</linearGradient>
<linearGradient id="paint2_linear_1_1708" x1="-32424.4" y1="20811.2" x2="-10516.7" y2="-36696.6" gradientUnits="userSpaceOnUse">
<stop stop-color="#003F8A"/>
<stop offset="0.518" stop-color="#00D7DF"/>
<stop offset="1" stop-color="#006DF0"/>
</linearGradient>
<linearGradient id="paint3_linear_1_1708" x1="31743.6" y1="45563.2" x2="53651.3" y2="-11944.6" gradientUnits="userSpaceOnUse">
<stop stop-color="#003F8A"/>
<stop offset="0.518" stop-color="#00D7DF"/>
<stop offset="1" stop-color="#006DF0"/>
</linearGradient>
<linearGradient id="paint4_linear_1_1708" x1="-13896.8" y1="77440.8" x2="76651.9" y2="-13107.9" gradientUnits="userSpaceOnUse">
<stop stop-color="#003F8A"/>
<stop offset="0.518" stop-color="#00D7DF"/>
<stop offset="1" stop-color="#006DF0"/>
</linearGradient>
<linearGradient id="paint5_linear_1_1708" x1="-12382.4" y1="23770.8" x2="8777.11" y2="-24593.8" gradientUnits="userSpaceOnUse">
<stop stop-color="#003F8A"/>
<stop offset="0.518" stop-color="#00D7DF"/>
<stop offset="1" stop-color="#006DF0"/>
</linearGradient>
<linearGradient id="paint6_linear_1_1708" x1="-9566.4" y1="7344.8" x2="-7540.14" y2="-8865.31" gradientUnits="userSpaceOnUse">
<stop stop-color="#003F8A"/>
<stop offset="0.518" stop-color="#00D7DF"/>
<stop offset="1" stop-color="#006DF0"/>
</linearGradient>
<linearGradient id="paint7_linear_1_1708" x1="-8030.4" y1="7560.8" x2="-6004.14" y2="-8649.31" gradientUnits="userSpaceOnUse">
<stop stop-color="#003F8A"/>
<stop offset="0.518" stop-color="#00D7DF"/>
<stop offset="1" stop-color="#006DF0"/>
</linearGradient>
<linearGradient id="paint8_linear_1_1708" x1="-4643.6" y1="7552.8" x2="-1157.24" y2="-8135.84" gradientUnits="userSpaceOnUse">
<stop stop-color="#003F8A"/>
<stop offset="0.518" stop-color="#00D7DF"/>
<stop offset="1" stop-color="#006DF0"/>
</linearGradient>
<linearGradient id="paint9_linear_1_1708" x1="-769.2" y1="8000.8" x2="6829.29" y2="-3396.93" gradientUnits="userSpaceOnUse">
<stop stop-color="#003F8A"/>
<stop offset="0.518" stop-color="#00D7DF"/>
<stop offset="1" stop-color="#006DF0"/>
</linearGradient>
<linearGradient id="paint10_linear_1_1708" x1="-12014.6" y1="24452.5" x2="19310.3" y2="-18619.3" gradientUnits="userSpaceOnUse">
<stop stop-color="#003F8A"/>
<stop offset="0.518" stop-color="#00D7DF"/>
<stop offset="1" stop-color="#006DF0"/>
</linearGradient>
<linearGradient id="paint11_linear_1_1708" x1="-4.40064" y1="33443.2" x2="31320.5" y2="-9628.59" gradientUnits="userSpaceOnUse">
<stop stop-color="#003F8A"/>
<stop offset="0.518" stop-color="#00D7DF"/>
<stop offset="1" stop-color="#006DF0"/>
</linearGradient>
<linearGradient id="paint12_linear_1_1708" x1="7215.61" y1="120851" x2="114924" y2="37077.5" gradientUnits="userSpaceOnUse">
<stop stop-color="#003F8A"/>
<stop offset="0.518" stop-color="#00D7DF"/>
<stop offset="1" stop-color="#006DF0"/>
</linearGradient>
<linearGradient id="paint13_linear_1_1708" x1="1678.8" y1="9416.8" x2="9277.29" y2="-1980.93" gradientUnits="userSpaceOnUse">
<stop stop-color="#003F8A"/>
<stop offset="0.518" stop-color="#00D7DF"/>
<stop offset="1" stop-color="#006DF0"/>
</linearGradient>
<linearGradient id="paint14_linear_1_1708" x1="1262.8" y1="9160.8" x2="8861.29" y2="-2236.93" gradientUnits="userSpaceOnUse">
<stop stop-color="#003F8A"/>
<stop offset="0.518" stop-color="#00D7DF"/>
<stop offset="1" stop-color="#006DF0"/>
</linearGradient>
<linearGradient id="paint15_linear_1_1708" x1="846.8" y1="8904.8" x2="8445.29" y2="-2492.93" gradientUnits="userSpaceOnUse">
<stop stop-color="#003F8A"/>
<stop offset="0.518" stop-color="#00D7DF"/>
<stop offset="1" stop-color="#006DF0"/>
</linearGradient>
<linearGradient id="paint16_linear_1_1708" x1="430.8" y1="8648.8" x2="8029.29" y2="-2748.93" gradientUnits="userSpaceOnUse">
<stop stop-color="#003F8A"/>
<stop offset="0.518" stop-color="#00D7DF"/>
<stop offset="1" stop-color="#006DF0"/>
</linearGradient>
<linearGradient id="paint17_linear_1_1708" x1="14.7998" y1="8392.8" x2="7613.29" y2="-3004.93" gradientUnits="userSpaceOnUse">
<stop stop-color="#003F8A"/>
<stop offset="0.518" stop-color="#00D7DF"/>
<stop offset="1" stop-color="#006DF0"/>
</linearGradient>
<linearGradient id="paint18_linear_1_1708" x1="-401.2" y1="8136.8" x2="7197.29" y2="-3260.93" gradientUnits="userSpaceOnUse">
<stop stop-color="#003F8A"/>
<stop offset="0.518" stop-color="#00D7DF"/>
<stop offset="1" stop-color="#006DF0"/>
</linearGradient>
<linearGradient id="paint19_linear_1_1708" x1="1529.2" y1="8888.8" x2="3439.63" y2="-7349.84" gradientUnits="userSpaceOnUse">
<stop stop-color="#003F8A"/>
<stop offset="0.518" stop-color="#00D7DF"/>
<stop offset="1" stop-color="#006DF0"/>
</linearGradient>
<linearGradient id="paint20_linear_1_1708" x1="12915.6" y1="10992.8" x2="15813.2" y2="-4943.76" gradientUnits="userSpaceOnUse">
<stop stop-color="#003F8A"/>
<stop offset="0.518" stop-color="#00D7DF"/>
<stop offset="1" stop-color="#006DF0"/>
</linearGradient>
<linearGradient id="paint21_linear_1_1708" x1="2285.6" y1="9456.8" x2="7224.62" y2="-5360.25" gradientUnits="userSpaceOnUse">
<stop stop-color="#003F8A"/>
<stop offset="0.518" stop-color="#00D7DF"/>
<stop offset="1" stop-color="#006DF0"/>
</linearGradient>
<linearGradient id="paint22_linear_1_1708" x1="-3559.2" y1="7904.8" x2="-1752.24" y2="-8357.82" gradientUnits="userSpaceOnUse">
<stop stop-color="#003F8A"/>
<stop offset="0.518" stop-color="#00D7DF"/>
<stop offset="1" stop-color="#006DF0"/>
</linearGradient>
<linearGradient id="paint23_linear_1_1708" x1="-1041.6" y1="7672.8" x2="5543.76" y2="-5497.91" gradientUnits="userSpaceOnUse">
<stop stop-color="#003F8A"/>
<stop offset="0.518" stop-color="#00D7DF"/>
<stop offset="1" stop-color="#006DF0"/>
</linearGradient>
<linearGradient id="paint24_linear_1_1708" x1="2535.2" y1="15897.2" x2="13932.9" y2="8298.71" gradientUnits="userSpaceOnUse">
<stop stop-color="#003F8A"/>
<stop offset="0.518" stop-color="#00D7DF"/>
<stop offset="1" stop-color="#006DF0"/>
</linearGradient>
<linearGradient id="paint25_linear_1_1708" x1="2791.2" y1="16313.2" x2="14188.9" y2="8714.71" gradientUnits="userSpaceOnUse">
<stop stop-color="#003F8A"/>
<stop offset="0.518" stop-color="#00D7DF"/>
<stop offset="1" stop-color="#006DF0"/>
</linearGradient>
<linearGradient id="paint26_linear_1_1708" x1="3047.2" y1="16729.2" x2="14444.9" y2="9130.71" gradientUnits="userSpaceOnUse">
<stop stop-color="#003F8A"/>
<stop offset="0.518" stop-color="#00D7DF"/>
<stop offset="1" stop-color="#006DF0"/>
</linearGradient>
<linearGradient id="paint27_linear_1_1708" x1="3303.2" y1="17145.2" x2="14700.9" y2="9546.71" gradientUnits="userSpaceOnUse">
<stop stop-color="#003F8A"/>
<stop offset="0.518" stop-color="#00D7DF"/>
<stop offset="1" stop-color="#006DF0"/>
</linearGradient>
</defs>
</svg>
